<?xml version="1.0" encoding="utf-8"?>
<!-- Generator: Adobe Illustrator 16.0.0, SVG Export Plug-In . SVG Version: 6.00 Build 0)  -->
<!DOCTYPE svg PUBLIC "-//W3C//DTD SVG 1.1//EN" "http://www.w3.org/Graphics/SVG/1.1/DTD/svg11.dtd">
<svg version="1.1" id="Ebene_1" xmlns="http://www.w3.org/2000/svg" xmlns:xlink="http://www.w3.org/1999/xlink" x="0px" y="0px"
	 width="32px" height="32px" viewBox="0 0 32 32" enable-background="new 0 0 32 32" xml:space="preserve">
<path fill="#FFFFFF" d="M30.829,16.163c-0.814-1.178-1.842-2.043-3.117-2.633c0-0.312,0.036-0.519,0.036-0.692
	c0-2.288-0.851-4.228-2.517-5.856c-1.667-1.628-3.686-2.426-6.025-2.426c-1.771,0-3.366,0.451-4.783,1.421
	c-1.419,0.935-2.48,2.183-3.119,3.707C10.524,9.026,9.603,8.68,8.54,8.68c-1.169,0-2.197,0.416-3.012,1.212
	c-0.851,0.831-1.275,1.801-1.275,2.946c0,0.797,0.248,1.558,0.708,2.216c-1.453,0.348-2.622,1.075-3.543,2.184
	C0.46,18.382,0,19.664,0,21.118c0,1.732,0.638,3.188,1.878,4.401c1.24,1.212,2.765,1.836,4.536,1.836h8.931v-3.707H9.922
	l3.543-4.437l3.509-4.434l3.509,4.434l3.508,4.437h-5.21v3.707h5.739c2.057,0,3.829-0.728,5.281-2.148
	C31.256,23.785,32,22.088,32,20.079C32,18.657,31.61,17.376,30.829,16.163z"/>
</svg>
